<svg width="60" height="60" viewBox="0 0 60 60" fill="none" xmlns="http://www.w3.org/2000/svg">
<circle cx="30" cy="30" r="30" fill="#A40E47"/>
<path d="M42.218 30.0976C41.7868 30.0976 41.4368 30.4476 41.4368 30.8788C41.4368 33.2475 39.4127 35.1756 36.9237 35.1756H20.3414L24.6209 31.0648C24.9319 30.7656 24.942 30.271 24.6428 29.9601C24.3436 29.6492 23.8491 29.639 23.5382 29.9382L18.2524 35.0162C18.2485 35.0201 18.2469 35.0256 18.243 35.0295C18.2391 35.0334 18.2336 35.0342 18.2297 35.0389C18.1961 35.074 18.1805 35.1178 18.1547 35.1576C18.1258 35.2006 18.0915 35.2404 18.0719 35.2873C18.0524 35.3349 18.0493 35.3849 18.0399 35.4349C18.0313 35.4826 18.0149 35.5295 18.0149 35.5787C18.0149 35.6279 18.0305 35.6756 18.0399 35.724C18.0493 35.774 18.0524 35.824 18.0719 35.8716C18.0907 35.9185 18.1258 35.9584 18.1547 36.0013C18.1805 36.0404 18.1961 36.0849 18.2297 36.1201C18.2336 36.124 18.2391 36.1248 18.243 36.1287C18.2469 36.1326 18.2485 36.138 18.2524 36.142L23.5382 41.2199C23.6897 41.3652 23.8842 41.4379 24.0795 41.4379C24.285 41.4379 24.4897 41.3574 24.6428 41.198C24.942 40.8871 24.9319 40.3926 24.6209 40.0934L21.1281 36.738H36.9245C40.2744 36.738 43.0001 34.11 43.0001 30.8788C42.9993 30.4476 42.6493 30.0976 42.218 30.0976Z" fill="#FAFAFA"/>
<path d="M18.7812 30.9038C19.2125 30.9038 19.5625 30.5539 19.5625 30.1226C19.5625 27.7539 21.5866 25.8259 24.0756 25.8259H40.6579L36.3783 29.9367C36.0674 30.2359 36.0572 30.7304 36.3565 31.0413C36.5096 31.2007 36.7143 31.2812 36.9197 31.2812C37.115 31.2812 37.3096 31.2085 37.4611 31.0632L42.7469 25.9853C42.7508 25.9813 42.7524 25.9759 42.7563 25.972C42.7602 25.9681 42.7656 25.9673 42.7695 25.9634C42.8031 25.9282 42.8188 25.8845 42.8445 25.8446C42.8734 25.8017 42.9078 25.7618 42.9273 25.7149C42.9469 25.6673 42.95 25.6173 42.9594 25.5673C42.9688 25.5189 42.9844 25.4712 42.9844 25.422C42.9844 25.3728 42.9688 25.3251 42.9594 25.2767C42.95 25.2267 42.9469 25.1767 42.9273 25.129C42.9086 25.0822 42.8734 25.0423 42.8445 24.9993C42.8188 24.9603 42.8031 24.9158 42.7695 24.8806C42.7656 24.8767 42.7602 24.8751 42.7563 24.8712C42.7524 24.8673 42.7516 24.8618 42.7469 24.8579L37.4611 19.78C37.1502 19.4815 36.6557 19.4909 36.3565 19.8019C36.0572 20.1128 36.0674 20.6073 36.3783 20.9065L39.8712 24.2619H24.0756C20.7257 24.2634 18 26.8915 18 30.1226C18 30.5539 18.35 30.9038 18.7812 30.9038Z" fill="#FAFAFA"/>
</svg>
